<svg xmlns="http://www.w3.org/2000/svg" viewBox="0 0 200 200">
  <defs>
    <linearGradient id="bgApr" x1="0%" y1="0%" x2="100%" y2="100%">
      <stop offset="0%" style="stop-color:#1a1a2e"/>
      <stop offset="100%" style="stop-color:#16213e"/>
    </linearGradient>
  </defs>
  <rect width="200" height="200" rx="40" fill="url(#bgApr)"/>
  <!-- Bear ears -->
  <circle cx="72" cy="52" r="18" fill="#8B4513"/>
  <circle cx="128" cy="52" r="18" fill="#8B4513"/>
  <circle cx="72" cy="52" r="9" fill="#D2691E"/>
  <circle cx="128" cy="52" r="9" fill="#D2691E"/>
  <!-- Bear body -->
  <ellipse cx="100" cy="130" rx="50" ry="42" fill="#8B4513"/>
  <ellipse cx="100" cy="137" rx="32" ry="26" fill="#D2691E"/>
  <!-- Bear head -->
  <circle cx="100" cy="80" r="38" fill="#8B4513"/>
  <circle cx="100" cy="87" r="26" fill="#D2691E"/>
  <!-- Eyes -->
  <circle cx="87" cy="74" r="5" fill="#fff"/>
  <circle cx="113" cy="74" r="5" fill="#fff"/>
  <circle cx="88" cy="73" r="3" fill="#333"/>
  <circle cx="114" cy="73" r="3" fill="#333"/>
  <!-- Nose -->
  <ellipse cx="100" cy="90" rx="5" ry="3.5" fill="#333"/>
  <!-- Smile -->
  <path d="M94 95 Q100 101 106 95" fill="none" stroke="#333" stroke-width="2" stroke-linecap="round"/>
  <!-- Jester hat -->
  <polygon points="100,15 80,55 120,55" fill="#f1c40f" stroke="#e67e22" stroke-width="1"/>
  <circle cx="100" cy="18" r="6" fill="#e74c3c"/>
  <path d="M72 50 Q60 35 65 25" fill="none" stroke="#3498db" stroke-width="3" stroke-linecap="round"/>
  <circle cx="65" cy="23" r="4" fill="#e74c3c"/>
  <path d="M128 50 Q140 35 135 25" fill="none" stroke="#3498db" stroke-width="3" stroke-linecap="round"/>
  <circle cx="135" cy="23" r="4" fill="#e74c3c"/>
  <!-- Confetti -->
  <circle cx="35" cy="85" r="4" fill="#f1c40f" opacity="0.7"/>
  <circle cx="165" cy="70" r="4" fill="#e74c3c" opacity="0.7"/>
  <rect x="45" y="120" width="6" height="6" rx="1" fill="#3498db" opacity="0.6" transform="rotate(30 48 123)"/>
  <rect x="152" y="125" width="6" height="6" rx="1" fill="#2ecc71" opacity="0.6" transform="rotate(45 155 128)"/>
  <circle cx="170" cy="145" r="3" fill="#f1c40f" opacity="0.5"/>
  <circle cx="30" cy="140" r="3" fill="#e74c3c" opacity="0.5"/>
  <!-- Party horn -->
  <rect x="145" y="75" width="25" height="6" rx="3" fill="#3498db" transform="rotate(-20 157 78)"/>
  <circle cx="170" cy="66" r="5" fill="#f1c40f"/>
  <path d="M173 63 Q176 60 178 62" fill="none" stroke="#ff6b9d" stroke-width="1.5"/>
</svg>