<svg xmlns="http://www.w3.org/2000/svg" viewBox="0 0 200 200">
  <defs>
    <linearGradient id="bgM8" x1="0%" y1="0%" x2="100%" y2="100%">
      <stop offset="0%" style="stop-color:#2d004d"/>
      <stop offset="100%" style="stop-color:#7d0099"/>
    </linearGradient>
  </defs>
  <rect width="200" height="200" rx="40" fill="url(#bgM8)"/>
  <!-- Bear ears -->
  <circle cx="72" cy="52" r="18" fill="#8B4513"/>
  <circle cx="128" cy="52" r="18" fill="#8B4513"/>
  <circle cx="72" cy="52" r="9" fill="#D2691E"/>
  <circle cx="128" cy="52" r="9" fill="#D2691E"/>
  <!-- Bear body -->
  <ellipse cx="100" cy="130" rx="50" ry="42" fill="#8B4513"/>
  <ellipse cx="100" cy="137" rx="32" ry="26" fill="#D2691E"/>
  <!-- Bear head -->
  <circle cx="100" cy="80" r="38" fill="#8B4513"/>
  <circle cx="100" cy="87" r="26" fill="#D2691E"/>
  <!-- Eyes -->
  <circle cx="87" cy="74" r="5" fill="#fff"/>
  <circle cx="113" cy="74" r="5" fill="#fff"/>
  <circle cx="88" cy="73" r="3" fill="#333"/>
  <circle cx="114" cy="73" r="3" fill="#333"/>
  <!-- Blush -->
  <ellipse cx="76" cy="90" rx="7" ry="4" fill="#ff69b4" opacity="0.5"/>
  <ellipse cx="124" cy="90" rx="7" ry="4" fill="#ff69b4" opacity="0.5"/>
  <!-- Nose -->
  <ellipse cx="100" cy="90" rx="5" ry="3.5" fill="#333"/>
  <!-- Smile -->
  <path d="M94 95 Q100 101 106 95" fill="none" stroke="#333" stroke-width="2" stroke-linecap="round"/>
  <!-- Flower crown -->
  <circle cx="75" cy="48" r="8" fill="#ff69b4"/>
  <circle cx="75" cy="48" r="5" fill="#ffb6c1"/>
  <circle cx="90" cy="40" r="8" fill="#ff1493"/>
  <circle cx="90" cy="40" r="5" fill="#ffb6c1"/>
  <circle cx="108" cy="38" r="8" fill="#da70d6"/>
  <circle cx="108" cy="38" r="5" fill="#ffb6c1"/>
  <circle cx="125" cy="45" r="8" fill="#ff69b4"/>
  <circle cx="125" cy="45" r="5" fill="#ffb6c1"/>
  <!-- Small flowers around -->
  <text x="38" y="75" font-size="16" fill="#ff69b4" opacity="0.7">🌸</text>
  <text x="155" y="70" font-size="14" fill="#ff69b4" opacity="0.6">🌷</text>
  <text x="160" y="140" font-size="12" fill="#da70d6" opacity="0.5">🌸</text>
  <text x="35" y="145" font-size="12" fill="#da70d6" opacity="0.5">🌺</text>
</svg>