<svg xmlns="http://www.w3.org/2000/svg" viewBox="0 0 200 200">
  <defs>
    <linearGradient id="bgMay" x1="0%" y1="0%" x2="100%" y2="100%">
      <stop offset="0%" style="stop-color:#006a4e"/>
      <stop offset="100%" style="stop-color:#00a86b"/>
    </linearGradient>
  </defs>
  <rect width="200" height="200" rx="40" fill="url(#bgMay)"/>
  <!-- Bear ears -->
  <circle cx="72" cy="52" r="18" fill="#8B4513"/>
  <circle cx="128" cy="52" r="18" fill="#8B4513"/>
  <circle cx="72" cy="52" r="9" fill="#D2691E"/>
  <circle cx="128" cy="52" r="9" fill="#D2691E"/>
  <!-- Bear body -->
  <ellipse cx="100" cy="130" rx="50" ry="42" fill="#8B4513"/>
  <ellipse cx="100" cy="137" rx="32" ry="26" fill="#D2691E"/>
  <!-- Bear head -->
  <circle cx="100" cy="80" r="38" fill="#8B4513"/>
  <circle cx="100" cy="87" r="26" fill="#D2691E"/>
  <!-- Eyes -->
  <circle cx="87" cy="74" r="5" fill="#fff"/>
  <circle cx="113" cy="74" r="5" fill="#fff"/>
  <circle cx="88" cy="73" r="3" fill="#333"/>
  <circle cx="114" cy="73" r="3" fill="#333"/>
  <!-- Blush -->
  <ellipse cx="76" cy="90" rx="7" ry="4" fill="#ff9999" opacity="0.4"/>
  <ellipse cx="124" cy="90" rx="7" ry="4" fill="#ff9999" opacity="0.4"/>
  <!-- Nose -->
  <ellipse cx="100" cy="90" rx="5" ry="3.5" fill="#333"/>
  <!-- Smile -->
  <path d="M94 95 Q100 101 106 95" fill="none" stroke="#333" stroke-width="2" stroke-linecap="round"/>
  <!-- Spring flower crown -->
  <circle cx="78" cy="46" r="7" fill="#fff"/>
  <circle cx="78" cy="46" r="4" fill="#f1c40f"/>
  <circle cx="92" cy="38" r="7" fill="#ff69b4"/>
  <circle cx="92" cy="38" r="4" fill="#fff"/>
  <circle cx="108" cy="36" r="7" fill="#fff"/>
  <circle cx="108" cy="36" r="4" fill="#ff69b4"/>
  <circle cx="122" cy="43" r="7" fill="#ff69b4"/>
  <circle cx="122" cy="43" r="4" fill="#fff"/>
  <!-- Spring flowers around -->
  <text x="30" y="75" font-size="18" fill="#fff" opacity="0.6">🌼</text>
  <text x="155" y="70" font-size="16" fill="#fff" opacity="0.6">🌷</text>
  <text x="40" y="150" font-size="14" fill="#fff" opacity="0.5">🌻</text>
  <text x="155" y="150" font-size="14" fill="#fff" opacity="0.5">🌸</text>
  <!-- Butterfly -->
  <path d="M162 90 Q168 82 175 88 Q168 92 162 90" fill="#ff69b4" opacity="0.7"/>
  <path d="M162 90 Q168 98 175 92 Q168 88 162 90" fill="#ff69b4" opacity="0.7"/>
  <circle cx="162" cy="90" r="1.5" fill="#333"/>
</svg>