<svg xmlns="http://www.w3.org/2000/svg" viewBox="0 0 200 200">
  <defs>
    <linearGradient id="bgNyt" x1="0%" y1="0%" x2="100%" y2="100%">
      <stop offset="0%" style="stop-color:#0a3d1a"/>
      <stop offset="100%" style="stop-color:#1a6b2e"/>
    </linearGradient>
    <linearGradient id="treeG" x1="0%" y1="0%" x2="0%" y2="100%">
      <stop offset="0%" style="stop-color:#2ecc71"/>
      <stop offset="100%" style="stop-color:#1a8a4a"/>
    </linearGradient>
  </defs>
  <rect width="200" height="200" rx="40" fill="url(#bgNyt)"/>
  <!-- Tree -->
  <polygon points="100,35 55,110 80,110 50,165 150,165 120,110 145,110" fill="url(#treeG)" stroke="#27ae60" stroke-width="2"/>
  <!-- Star -->
  <polygon points="100,25 104,40 120,40 108,50 112,65 100,55 88,65 92,50 80,40 96,40" fill="#f1c40f" stroke="#f39c12" stroke-width="1"/>
  <!-- Ornaments -->
  <circle cx="85" cy="80" r="6" fill="#e74c3c"/>
  <circle cx="115" cy="75" r="6" fill="#3498db"/>
  <circle cx="75" cy="100" r="6" fill="#f39c12"/>
  <circle cx="125" cy="95" r="6" fill="#e74c3c"/>
  <circle cx="100" cy="110" r="7" fill="#9b59b6"/>
  <circle cx="80" cy="130" r="6" fill="#3498db"/>
  <circle cx="120" cy="125" r="6" fill="#f1c40f"/>
  <circle cx="95" cy="140" r="5" fill="#e74c3c"/>
  <!-- Lights -->
  <circle cx="90" cy="90" r="3" fill="#fff" opacity="0.8"/>
  <circle cx="110" cy="100" r="3" fill="#fff" opacity="0.8"/>
  <circle cx="100" cy="130" r="3" fill="#fff" opacity="0.8"/>
</svg>