<svg xmlns="http://www.w3.org/2000/svg" viewBox="0 0 200 200">
  <defs>
    <linearGradient id="bgNyB" x1="0%" y1="0%" x2="100%" y2="100%">
      <stop offset="0%" style="stop-color:#8B0000"/>
      <stop offset="100%" style="stop-color:#DC143C"/>
    </linearGradient>
  </defs>
  <rect width="200" height="200" rx="40" fill="url(#bgNyB)"/>
  <!-- Bear ears -->
  <circle cx="70" cy="50" r="20" fill="#8B4513"/>
  <circle cx="130" cy="50" r="20" fill="#8B4513"/>
  <circle cx="70" cy="50" r="10" fill="#D2691E"/>
  <circle cx="130" cy="50" r="10" fill="#D2691E"/>
  <!-- Bear body -->
  <ellipse cx="100" cy="120" rx="55" ry="50" fill="#8B4513"/>
  <ellipse cx="100" cy="130" rx="35" ry="30" fill="#D2691E"/>
  <!-- Bear head -->
  <circle cx="100" cy="75" r="40" fill="#8B4513"/>
  <circle cx="100" cy="82" r="28" fill="#D2691E"/>
  <!-- Eyes -->
  <circle cx="87" cy="70" r="5" fill="#fff"/>
  <circle cx="113" cy="70" r="5" fill="#fff"/>
  <circle cx="88" cy="69" r="3" fill="#333"/>
  <circle cx="114" cy="69" r="3" fill="#333"/>
  <!-- Nose -->
  <ellipse cx="100" cy="85" rx="6" ry="4" fill="#333"/>
  <!-- Smile -->
  <path d="M93 90 Q100 97 107 90" fill="none" stroke="#333" stroke-width="2" stroke-linecap="round"/>
  <!-- Santa hat -->
  <path d="M60 45 Q70 15 100 10 Q130 15 140 45 L135 48 Q120 30 100 28 Q80 30 65 48 Z" fill="#e74c3c"/>
  <circle cx="100" cy="12" r="8" fill="#fff"/>
  <rect x="60" y="43" width="80" height="12" rx="6" fill="#fff"/>
  <!-- Scarf -->
  <rect x="65" y="90" width="70" height="8" rx="4" fill="#e74c3c"/>
  <rect x="120" y="88" width="10" height="40" rx="4" fill="#e74c3c"/>
</svg>