<svg xmlns="http://www.w3.org/2000/svg" viewBox="0 0 200 200">
  <defs>
    <linearGradient id="bgVb" x1="0%" y1="0%" x2="100%" y2="100%">
      <stop offset="0%" style="stop-color:#5c0033"/>
      <stop offset="100%" style="stop-color:#c4005a"/>
    </linearGradient>
  </defs>
  <rect width="200" height="200" rx="40" fill="url(#bgVb)"/>
  <!-- Bear ears -->
  <circle cx="70" cy="55" r="18" fill="#8B4513"/>
  <circle cx="130" cy="55" r="18" fill="#8B4513"/>
  <!-- Bear body -->
  <ellipse cx="100" cy="130" rx="50" ry="45" fill="#8B4513"/>
  <ellipse cx="100" cy="138" rx="32" ry="28" fill="#D2691E"/>
  <!-- Bear head -->
  <circle cx="100" cy="80" r="38" fill="#8B4513"/>
  <circle cx="100" cy="87" r="26" fill="#D2691E"/>
  <!-- Eyes -->
  <circle cx="87" cy="75" r="5" fill="#fff"/>
  <circle cx="113" cy="75" r="5" fill="#fff"/>
  <circle cx="88" cy="74" r="3" fill="#333"/>
  <circle cx="114" cy="74" r="3" fill="#333"/>
  <!-- Blush -->
  <ellipse cx="76" cy="90" rx="7" ry="4" fill="#ff6b9d" opacity="0.5"/>
  <ellipse cx="124" cy="90" rx="7" ry="4" fill="#ff6b9d" opacity="0.5"/>
  <!-- Nose -->
  <ellipse cx="100" cy="90" rx="5" ry="3.5" fill="#333"/>
  <!-- Smile -->
  <path d="M94 95 Q100 101 106 95" fill="none" stroke="#333" stroke-width="2" stroke-linecap="round"/>
  <!-- Heart the bear holds -->
  <path d="M160 110 L168 95 L176 110 L168 120 Z" fill="#e91e63" stroke="#ff1493" stroke-width="1"/>
  <path d="M130 105 C130 105 125 95 130 88 C135 82 142 85 145 90 C148 85 155 82 160 88 C165 95 160 105 160 105" fill="#e91e63" stroke="#ff1493" stroke-width="1"/>
  <!-- Bow -->
  <path d="M155 105 Q165 95 170 100 Q165 108 155 105Z" fill="#ff1493"/>
  <path d="M155 105 Q165 115 170 110 Q165 102 155 105Z" fill="#ff1493"/>
</svg>