<svg xmlns="http://www.w3.org/2000/svg" viewBox="0 0 200 200">
  <defs>
    <linearGradient id="bgVh" x1="0%" y1="0%" x2="100%" y2="100%">
      <stop offset="0%" style="stop-color:#4a0033"/>
      <stop offset="100%" style="stop-color:#9b0059"/>
    </linearGradient>
    <radialGradient id="heartG" cx="50%" cy="40%" r="50%">
      <stop offset="0%" style="stop-color:#ff6b9d"/>
      <stop offset="100%" style="stop-color:#e91e63"/>
    </radialGradient>
  </defs>
  <rect width="200" height="200" rx="40" fill="url(#bgVh)"/>
  <!-- Heart -->
  <path d="M100 165 C100 165 30 120 30 75 C30 50 50 30 75 30 C85 30 95 35 100 45 C105 35 115 30 125 30 C150 30 170 50 170 75 C170 120 100 165 100 165Z" fill="url(#heartG)" stroke="#ff1493" stroke-width="2"/>
  <!-- Sparkles -->
  <text x="40" y="45" font-size="18" fill="#fff" opacity="0.8">✨</text>
  <text x="148" y="40" font-size="16" fill="#fff" opacity="0.6">✨</text>
  <text x="50" y="140" font-size="14" fill="#fff" opacity="0.5">💫</text>
  <text x="145" y="145" font-size="14" fill="#fff" opacity="0.5">💫</text>
  <circle cx="160" cy="80" r="3" fill="#fff" opacity="0.7"/>
  <circle cx="40" cy="70" r="2" fill="#fff" opacity="0.6"/>
  <circle cx="100" cy="20" r="3" fill="#ff6b9d" opacity="0.8"/>
</svg>